# xmcd
# Track frame offsets:
# 150
# 15508
# 29905
# 45099
# 58309
#
# Disc length: 1013 seconds
# Revision: 0
# Processed by: cddbd v1.4PL0 Copyright (c) Steve Scherf et al.
# Submitted via: VisiTrax 2.9.5.180 - For more info visit www.synapsa.com
#
DISCID=3a03f305
DTITLE=Various Artist - New Country Volume 11 June-July 2000
DYEAR=2000
DGENRE=
TTITLE0=Greg Alan - Bassholes forever
TTITLE1=Larry King - Dance the last dance
TTITLE2=Fred McCarty - Oh, Joni Bobbi Sue
TTITLE3=Garry Johnson - On the good side
TTITLE4=Donna Little - You're not there to hold me
EXTD=
EXTT0=
EXTT1=
EXTT2=
EXTT3=
EXTT4=
PLAYORDER=
